<svg xmlns="http://www.w3.org/2000/svg" width="300" height="327" style="shape-rendering:geometricPrecision;text-rendering:geometricPrecision;image-rendering:optimizeQuality;fill-rule:evenodd;clip-rule:evenodd"><path fill="#932a2a" d="M144.5-.5h10a1810.256 1810.256 0 0 1 123 65.5c10.528 6.346 17.862 15.18 22 26.5v142c-4.229 10.406-11.229 18.573-21 24.5a2244.034 2244.034 0 0 1-124 68.5h-10a2244.106 2244.106 0 0 1-124-68.5c-9.771-5.927-16.771-14.094-21-24.5v-142c4.138-11.32 11.472-20.154 22-26.5a1810.208 1810.208 0 0 1 123-65.5Z" style="opacity:.976"/><path fill="#ec4444" d="M146.5 16.5c3.549-.06 6.882.773 10 2.5a2842.114 2842.114 0 0 1 113 61c5.934 3.933 10.434 9.1 13.5 15.5a4420.29 4420.29 0 0 1 0 133c-2.354 5.358-5.854 9.858-10.5 13.5l-80 46a646.641 646.641 0 0 1-43 21.5 646.641 646.641 0 0 1-43-21.5l-80-46c-4.646-3.642-8.146-8.142-10.5-13.5a4422.279 4422.279 0 0 1 0-133c4.167-8.167 10.333-14.333 18.5-18.5a3027.984 3027.984 0 0 1 112-60.5Z" style="opacity:1"/><path fill="#fefafa" d="M209.5 143.5a31610.598 31610.598 0 0 1-21 24 241.89 241.89 0 0 1-32 32c-5.276 2.957-10.276 2.624-15-1a257.21 257.21 0 0 1-33-33 465.648 465.648 0 0 0-19-23c-8.338-9.998-15.171-20.998-20.5-33-1.468-6.36-.135-12.026 4-17 28.352-22.447 60.518-31.28 96.5-26.5a252.654 252.654 0 0 1 48 20c9.642 5.45 13.808 13.618 12.5 24.5a82.927 82.927 0 0 1-7 14 4921.966 4921.966 0 0 1-13.5 19Z" style="opacity:1"/><path fill="#ec4746" d="M121.5 109.5c-.934 1.068-1.268 2.401-1 4a2658.707 2658.707 0 0 0-41-8c.108-2.283.941-4.283 2.5-6 14.046-10.104 29.546-17.104 46.5-21a208.482 208.482 0 0 0-7 31Z" style="opacity:1"/><path fill="#ec4646" d="M218.5 103.5c-.12 1.086-.787 1.753-2 2a2212.067 2212.067 0 0 0-36.5 8c-1.011-.556-1.844-1.222-2.5-2a227.124 227.124 0 0 0-8-33 152.548 152.548 0 0 1 45 19.5c1.964 1.451 3.297 3.284 4 5.5Z" style="opacity:1"/><path fill="#942b2b" d="M218.5 103.5c1.098 1.101 1.265 2.434.5 4a145.926 145.926 0 0 1-19 30l-26 30a265.223 265.223 0 0 1-24.5 23c-24.86-22.102-46.693-46.769-65.5-74a39.37 39.37 0 0 1-4.5-11 2658.707 2658.707 0 0 1 41 8c-.268-1.599.066-2.932 1-4-.284 1.915.049 3.581 1 5a1228.512 1228.512 0 0 0 27 74 1228.512 1228.512 0 0 0 27-74c.904-.709 1.237-1.709 1-3 .656.778 1.489 1.444 2.5 2a2212.067 2212.067 0 0 1 36.5-8c1.213-.247 1.88-.914 2-2Z" style="opacity:1"/><path fill="#ec4444" d="M122.5 114.5h54a1228.512 1228.512 0 0 1-27 74 1228.512 1228.512 0 0 1-27-74Z" style="opacity:1"/><path fill="#932a2a" d="M89.5 142.5a465.648 465.648 0 0 1 19 23v48h33v-15c4.724 3.624 9.724 3.957 15 1v14h33a529.493 529.493 0 0 0-1-46c7.029-8.025 14.029-16.025 21-24h27a40.914 40.914 0 0 1 .5-9c1.822-1.545 3.989-2.212 6.5-2 2.511-.212 4.678.455 6.5 2 .498 2.982.665 5.982.5 9a72.367 72.367 0 0 1 12 .5c1.528 1.648 2.195 3.648 2 6 .195 2.352-.472 4.352-2 6a72.367 72.367 0 0 1-12 .5v57a72.367 72.367 0 0 1 12 .5c1.528 1.648 2.195 3.648 2 6 .195 2.352-.472 4.352-2 6a72.367 72.367 0 0 1-12 .5 25.879 25.879 0 0 1-1 10c-4.198 1.309-8.364 1.309-12.5 0a50.464 50.464 0 0 1-.5-10h-33a25.879 25.879 0 0 1-1 10c-4.198 1.309-8.364 1.309-12.5 0a50.464 50.464 0 0 1-.5-10h-33a25.879 25.879 0 0 1-1 10c-4.531 1.311-9.031 1.311-13.5 0a50.464 50.464 0 0 1-.5-10h-33a25.879 25.879 0 0 1-1 10c-4.198 1.309-8.364 1.309-12.5 0a50.442 50.442 0 0 1-.5-10h-33a25.87 25.87 0 0 1-1 10c-4.198 1.309-8.364 1.309-12.5 0a50.442 50.442 0 0 1-.5-10 72.368 72.368 0 0 1-12-.5c-1.528-1.648-2.195-3.648-2-6-.195-2.352.472-4.352 2-6a72.368 72.368 0 0 1 12-.5v-57a72.368 72.368 0 0 1-12-.5c-1.528-1.648-2.195-3.648-2-6-.195-2.352.472-4.352 2-6a72.368 72.368 0 0 1 12-.5 40.939 40.939 0 0 1 .5-9c1.822-1.545 3.989-2.212 6.5-2 2.511-.212 4.678.455 6.5 2 .498 2.982.665 5.982.5 9 9.515.327 18.848-.006 28-1Z" style="opacity:1"/><path fill="#eb4444" d="M61.5 156.5h33v57h-33v-57ZM203.5 156.5h33v57h-33v-57Z" style="opacity:1"/><path fill="#eb4545" d="M108.5 165.5a257.21 257.21 0 0 0 33 33v15h-33v-48ZM188.5 167.5a529.493 529.493 0 0 1 1 46h-33v-14a241.89 241.89 0 0 0 32-32Z" style="opacity:1"/></svg>
